<svg id="erww00vcpvts1" xmlns="http://www.w3.org/2000/svg" xmlns:xlink="http://www.w3.org/1999/xlink" viewBox="61 63 203 51" shape-rendering="geometricPrecision" text-rendering="geometricPrecision"><style><![CDATA[#erww00vcpvts3 {animation: erww00vcpvts3_f_o 1000ms linear 1 alternate backwards}@keyframes erww00vcpvts3_f_o { 0% {fill-opacity: 0} 90% {fill-opacity: 0} 100% {fill-opacity: 1} }#erww00vcpvts4 {animation: erww00vcpvts4_f_o 1000ms linear 1 alternate backwards}@keyframes erww00vcpvts4_f_o { 0% {fill-opacity: 0} 80% {fill-opacity: 0} 90% {fill-opacity: 1} 100% {fill-opacity: 1} }#erww00vcpvts5 {animation: erww00vcpvts5_f_o 1000ms linear 1 alternate backwards}@keyframes erww00vcpvts5_f_o { 0% {fill-opacity: 0} 70% {fill-opacity: 0} 80% {fill-opacity: 1} 100% {fill-opacity: 1} }#erww00vcpvts6 {animation: erww00vcpvts6_f_o 1000ms linear 1 alternate backwards}@keyframes erww00vcpvts6_f_o { 0% {fill-opacity: 0} 60% {fill-opacity: 0} 70% {fill-opacity: 1} 100% {fill-opacity: 1} }#erww00vcpvts7 {animation: erww00vcpvts7_f_o 1000ms linear 1 alternate backwards}@keyframes erww00vcpvts7_f_o { 0% {fill-opacity: 0} 50% {fill-opacity: 0} 60% {fill-opacity: 1} 100% {fill-opacity: 1} }#erww00vcpvts8 {animation: erww00vcpvts8_f_o 1000ms linear 1 alternate backwards}@keyframes erww00vcpvts8_f_o { 0% {fill-opacity: 0} 40% {fill-opacity: 0} 50% {fill-opacity: 1} 100% {fill-opacity: 1} }#erww00vcpvts9 {animation: erww00vcpvts9_f_o 1000ms linear 1 alternate backwards}@keyframes erww00vcpvts9_f_o { 0% {fill-opacity: 0} 30% {fill-opacity: 0} 40% {fill-opacity: 1} 100% {fill-opacity: 1} }#erww00vcpvts10 {animation: erww00vcpvts10_f_o 1000ms linear 1 alternate backwards}@keyframes erww00vcpvts10_f_o { 0% {fill-opacity: 0} 20% {fill-opacity: 0} 30% {fill-opacity: 1} 100% {fill-opacity: 1} }]]></style><g id="erww00vcpvts2"><path id="erww00vcpvts3" d="M247.535000,85.458000L244.255000,85.458000L244.255000,79.518000L240.095000,79.518000L240.095000,85.458000L236.815000,85.458000L236.815000,71.598000L240.095000,71.598000L240.095000,76.958000L244.255000,76.958000L244.255000,71.598000L247.535000,71.598000L247.535000,85.458000L247.535000,85.458000ZM258.735000,84.558000L258.735000,84.558000Q260.035000,84.558000,260.995000,84.868000L260.995000,84.868000L260.995000,84.868000Q261.955000,85.178000,262.835000,85.818000L262.835000,85.818000L260.855000,88.398000L260.855000,88.398000Q259.715000,87.118000,258.515000,86.428000L258.515000,86.428000L258.515000,86.428000Q257.315000,85.738000,255.535000,85.738000L255.535000,85.738000L255.535000,85.738000Q253.675000,85.738000,252.315000,84.888000L252.315000,84.888000L252.315000,84.888000Q250.955000,84.038000,250.225000,82.418000L250.225000,82.418000L250.225000,82.418000Q249.495000,80.798000,249.495000,78.518000L249.495000,78.518000L249.495000,78.518000Q249.495000,76.278000,250.245000,74.638000L250.245000,74.638000L250.245000,74.638000Q250.995000,72.998000,252.395000,72.128000L252.395000,72.128000L252.395000,72.128000Q253.795000,71.258000,255.735000,71.258000L255.735000,71.258000L255.735000,71.258000Q258.695000,71.258000,260.345000,73.158000L260.345000,73.158000L260.345000,73.158000Q261.995000,75.058000,261.995000,78.518000L261.995000,78.518000L261.995000,78.518000Q261.995000,82.758000,258.735000,84.558000L258.735000,84.558000L258.735000,84.558000ZM252.935000,78.518000L252.935000,78.518000Q252.935000,81.078000,253.635000,82.238000L253.635000,82.238000L253.635000,82.238000Q254.335000,83.398000,255.735000,83.398000L255.735000,83.398000L255.735000,83.398000Q257.175000,83.398000,257.865000,82.248000L257.865000,82.248000L257.865000,82.248000Q258.555000,81.098000,258.555000,78.518000L258.555000,78.518000L258.555000,78.518000Q258.555000,75.938000,257.855000,74.798000L257.855000,74.798000L257.855000,74.798000Q257.155000,73.658000,255.735000,73.658000L255.735000,73.658000L255.735000,73.658000Q254.315000,73.658000,253.625000,74.808000L253.625000,74.808000L253.625000,74.808000Q252.935000,75.958000,252.935000,78.518000L252.935000,78.518000L252.935000,78.518000Z" fill="rgb(0,0,0)" fill-opacity="0" stroke="rgb(0,0,0)" stroke-width="1" stroke-opacity="0" stroke-linecap="square" stroke-miterlimit="3"/><path id="erww00vcpvts4" d="M212.350000,82.025000L212.350000,82.025000Q212.250000,82.175000,212.250000,82.425000L212.250000,82.425000L212.250000,82.425000Q212.250000,82.625000,212.375000,82.750000L212.375000,82.750000L212.375000,82.750000Q212.500000,82.875000,212.650000,82.875000L212.650000,82.875000L212.650000,82.875000Q213.050000,82.875000,213.300000,82.325000L213.300000,82.325000L213.300000,82.325000Q213.950000,80.625000,214,79.825000L214,79.825000L214,79.675000L214,79.675000Q214,79.375000,213.850000,79.175000L213.850000,79.175000L213.850000,79.175000Q213.700000,78.975000,213.500000,78.975000L213.500000,78.975000L213.500000,78.975000Q213.350000,78.975000,213.200000,79.150000L213.200000,79.150000L213.200000,79.150000Q213.050000,79.325000,213,79.625000L213,79.625000L213,79.625000Q212.750000,81.125000,212.350000,82.025000L212.350000,82.025000L212.350000,82.025000L212.350000,82.025000L212.350000,82.025000L212.350000,82.025000L212.350000,82.025000ZM225.550000,80.475000L225.550000,80.475000Q226,80.375000,226,79.925000L226,79.925000L226,79.925000Q226,79.675000,225.850000,79.550000L225.850000,79.550000L225.850000,79.550000Q225.700000,79.425000,225.400000,79.475000L225.400000,79.475000L225.400000,79.475000Q224.100000,79.775000,223.375000,80.675000L223.375000,80.675000L223.375000,80.675000Q222.650000,81.575000,222.050000,83.275000L222.050000,83.275000L221.950000,83.725000L221.950000,83.725000Q221.950000,84.175000,222.300000,84.175000L222.300000,84.175000L222.300000,84.175000Q222.500000,84.175000,222.700000,83.975000L222.700000,83.975000L222.700000,83.975000Q222.900000,83.775000,223,83.475000L223,83.475000L223,83.475000Q223.550000,81.975000,224.050000,81.350000L224.050000,81.350000L224.050000,81.350000Q224.550000,80.725000,225.550000,80.475000L225.550000,80.475000L225.550000,80.475000L225.550000,80.475000L225.550000,80.475000L225.550000,80.475000ZM212.250000,101.075000L212.250000,101.075000Q214.300000,100.775000,216.550000,100.775000L216.550000,100.775000L216.550000,100.775000Q217,99.625000,217.700000,97.125000L217.700000,97.125000L217.700000,97.125000Q215.600000,99.425000,213.700000,100.475000L213.700000,100.475000L213.700000,100.475000Q213.050000,100.825000,212.250000,101.075000L212.250000,101.075000L212.250000,101.075000L212.250000,101.075000L212.250000,101.075000ZM209.700000,100.325000L209.700000,100.325000Q210.550000,100.325000,210.550000,99.775000L210.550000,99.775000L210.550000,99.775000Q210.550000,99.575000,210.350000,99.400000L210.350000,99.400000L210.350000,99.400000Q210.150000,99.225000,209.750000,99.225000L209.750000,99.225000L209.750000,99.225000Q209,99.225000,208.550000,99L208.550000,99L208.550000,99Q208.100000,98.775000,207.900000,98.175000L207.900000,98.175000L207.900000,98.175000Q207.700000,97.525000,207.150000,97.525000L207.150000,97.525000L207.150000,97.525000Q206.950000,97.525000,206.825000,97.675000L206.825000,97.675000L206.825000,97.675000Q206.700000,97.825000,206.700000,98.075000L206.700000,98.075000L206.700000,98.075000Q206.700000,98.425000,206.900000,98.775000L206.900000,98.775000L206.900000,98.775000Q207.300000,99.525000,208.075000,99.925000L208.075000,99.925000L208.075000,99.925000Q208.850000,100.325000,209.700000,100.325000L209.700000,100.325000L209.700000,100.325000L209.700000,100.325000ZM207.400000,110.925000L207.400000,110.925000Q209.500000,110.925000,211.525000,109.100000L211.525000,109.100000L211.525000,109.100000Q213.550000,107.275000,215.300000,103.825000L215.300000,103.825000L215.300000,103.825000Q213.400000,104.125000,211.250000,104.950000L211.250000,104.950000L211.250000,104.950000Q209.100000,105.775000,207.575000,107.075000L207.575000,107.075000L207.575000,107.075000Q206.050000,108.375000,206.050000,109.925000L206.050000,109.925000L206.050000,109.925000Q206.050000,110.925000,207.400000,110.925000L207.400000,110.925000L207.400000,110.925000ZM225.700000,78.425000L225.700000,78.425000Q226.700000,78.425000,227.375000,78.875000L227.375000,78.875000L227.375000,78.875000Q228.050000,79.325000,228.050000,80.075000L228.050000,80.075000L228.050000,80.075000Q228.050000,80.625000,227.700000,81.175000L227.700000,81.175000L227.700000,81.175000Q226.750000,82.675000,226.050000,84.375000L226.050000,84.375000L226.050000,84.375000Q225.350000,86.075000,224.200000,89.175000L224.200000,89.175000L224.200000,89.175000Q221.600000,96.275000,219.550000,101.175000L219.550000,101.175000L219.550000,101.175000Q221.850000,101.625000,223.575000,102.850000L223.575000,102.850000L223.575000,102.850000Q225.300000,104.075000,225.300000,106.425000L225.300000,106.425000L225.300000,106.425000Q225.300000,107.275000,224.875000,107.825000L224.875000,107.825000L224.875000,107.825000Q224.450000,108.375000,223.800000,108.375000L223.800000,108.375000L223.800000,108.375000Q223.200000,108.375000,222.800000,107.900000L222.800000,107.900000L222.800000,107.900000Q222.400000,107.425000,222.400000,106.725000L222.400000,106.725000L222.400000,106.725000Q222.400000,105.675000,221.500000,105L221.500000,105L221.500000,105Q220.600000,104.325000,218.550000,103.925000L218.550000,103.925000L218.550000,103.925000Q216.100000,109.325000,212.200000,112.125000L212.200000,112.125000L212.200000,112.125000Q210.900000,113.025000,209.200000,113.525000L209.200000,113.525000L209.200000,113.525000Q207.500000,114.025000,205.750000,114.025000L205.750000,114.025000L205.750000,114.025000Q203.150000,114.025000,201.375000,112.900000L201.375000,112.900000L201.375000,112.900000Q199.600000,111.775000,199.600000,109.675000L199.600000,109.675000L199.600000,109.675000Q199.600000,106.825000,202.425000,104.625000L202.425000,104.625000L202.425000,104.625000Q205.250000,102.425000,210.100000,101.425000L210.100000,101.425000L209.750000,101.425000L209.750000,101.425000Q207.800000,101.425000,206.475000,100.575000L206.475000,100.575000L206.475000,100.575000Q205.150000,99.725000,205.150000,98.125000L205.150000,98.125000L205.150000,98.125000Q205.150000,94.975000,206.300000,91.925000L206.300000,91.925000L206.300000,91.925000Q207.450000,88.875000,209.400000,84.925000L209.400000,84.925000L209.400000,84.925000Q210.600000,82.725000,210.900000,81.775000L210.900000,81.775000L210.900000,81.775000Q211.100000,81.225000,211.300000,80.125000L211.300000,80.125000L211.300000,80.125000Q211.600000,78.675000,212.025000,78.050000L212.025000,78.050000L212.025000,78.050000Q212.450000,77.425000,213.800000,77.425000L213.800000,77.425000L213.800000,77.425000Q215.300000,77.425000,216,78.250000L216,78.250000L216,78.250000Q216.700000,79.075000,216.700000,80.425000L216.700000,80.425000L216.700000,80.425000Q216.700000,81.525000,216.250000,82.675000L216.250000,82.675000L216.250000,82.675000Q215.800000,83.825000,214.700000,85.975000L214.700000,85.975000L214.700000,85.975000Q213.100000,89.175000,212.050000,91.775000L212.050000,91.775000L212.050000,91.775000Q211,94.375000,210.750000,96.675000L210.750000,96.675000L210.750000,96.675000Q210.700000,97.025000,210.700000,97.625000L210.700000,97.625000L210.700000,97.625000Q210.700000,98.375000,211.100000,98.375000L211.100000,98.375000L211.100000,98.375000Q211.500000,98.375000,212.500000,97.825000L212.500000,97.825000L212.500000,97.825000Q215.200000,96.375000,216.900000,94.325000L216.900000,94.325000L216.900000,94.325000Q218.600000,92.275000,219.550000,88.625000L219.550000,88.625000L219.550000,88.625000Q220.250000,85.625000,220.900000,83.575000L220.900000,83.575000L220.900000,83.575000Q221.550000,81.525000,222.450000,80.075000L222.450000,80.075000L222.450000,80.075000Q223,79.275000,223.900000,78.850000L223.900000,78.850000L223.900000,78.850000Q224.800000,78.425000,225.700000,78.425000L225.700000,78.425000L225.700000,78.425000L225.700000,78.425000L225.700000,78.425000L225.700000,78.425000L225.700000,78.425000ZM205.800000,112.875000L205.800000,112.875000Q206.100000,112.875000,206.275000,112.725000L206.275000,112.725000L206.275000,112.725000Q206.450000,112.575000,206.450000,112.375000L206.450000,112.375000L206.450000,112.375000Q206.450000,112.175000,206.250000,112L206.250000,112L206.250000,112Q206.050000,111.825000,205.750000,111.875000L205.750000,111.875000L205.750000,111.875000Q203.950000,111.975000,202.925000,111.275000L202.925000,111.275000L202.925000,111.275000Q201.900000,110.575000,201.900000,109.275000L201.900000,109.275000L201.900000,109.275000Q201.900000,108.875000,201.750000,108.650000L201.750000,108.650000L201.750000,108.650000Q201.600000,108.425000,201.400000,108.425000L201.400000,108.425000L201.400000,108.425000Q201.200000,108.425000,201.050000,108.650000L201.050000,108.650000L201.050000,108.650000Q200.900000,108.875000,200.900000,109.275000L200.900000,109.275000L200.900000,109.275000Q200.900000,111.025000,202.250000,112L202.250000,112L202.250000,112Q203.600000,112.975000,205.800000,112.875000L205.800000,112.875000Z" fill="rgb(0,0,0)" fill-opacity="0" fill-rule="evenodd" stroke="none" stroke-width="1"/><path id="erww00vcpvts5" d="M190.550000,78.175000L190.550000,78.175000Q190.550000,78.975000,191,78.975000L191,78.975000L191,78.975000Q191.200000,78.975000,191.375000,78.750000L191.375000,78.750000L191.375000,78.750000Q191.550000,78.525000,191.550000,78.175000L191.550000,78.175000L191.550000,78.175000Q191.550000,77.225000,192.100000,76.525000L192.100000,76.525000L192.100000,76.525000Q192.300000,76.275000,192.300000,76.025000L192.300000,76.025000L192.300000,76.025000Q192.300000,75.825000,192.200000,75.700000L192.200000,75.700000L192.200000,75.700000Q192.100000,75.575000,191.950000,75.575000L191.950000,75.575000L191.950000,75.575000Q191.700000,75.575000,191.450000,75.875000L191.450000,75.875000L191.450000,75.875000Q190.550000,76.875000,190.550000,78.175000L190.550000,78.175000L190.550000,78.175000L190.550000,78.175000ZM195.600000,96.725000L195.600000,96.725000Q195.600000,97.175000,195.750000,97.450000L195.750000,97.450000L195.750000,97.450000Q195.900000,97.725000,196.050000,97.725000L196.050000,97.725000L196.050000,97.725000Q196.300000,97.725000,196.450000,97.450000L196.450000,97.450000L196.450000,97.450000Q196.600000,97.175000,196.600000,96.725000L196.600000,96.725000L196.600000,96.725000Q196.600000,94.575000,197.775000,91.200000L197.775000,91.200000L197.775000,91.200000Q198.950000,87.825000,200.600000,84.975000L200.600000,84.975000L200.600000,84.975000Q200.800000,84.625000,200.800000,84.325000L200.800000,84.325000L200.800000,84.325000Q200.800000,83.875000,200.400000,83.875000L200.400000,83.875000L200.400000,83.875000Q200.050000,83.875000,199.750000,84.425000L199.750000,84.425000L199.750000,84.425000Q198.050000,87.725000,196.825000,91.125000L196.825000,91.125000L196.825000,91.125000Q195.600000,94.525000,195.600000,96.725000L195.600000,96.725000L195.600000,96.725000ZM199.350000,101.575000L199.350000,101.575000Q197.200000,101.575000,195.825000,100.400000L195.825000,100.400000L195.825000,100.400000Q194.450000,99.225000,194.450000,97.075000L194.450000,97.075000L194.450000,97.075000Q194.450000,94.325000,196.100000,89.925000L196.100000,89.925000L196.100000,89.925000Q197.750000,85.525000,199.950000,81.575000L199.950000,81.575000L199.950000,81.575000Q198.600000,82.125000,197.050000,82.600000L197.050000,82.600000L197.050000,82.600000Q195.500000,83.075000,194.800000,83.225000L194.800000,83.225000L194.800000,83.225000Q194.350000,84.375000,193.500000,86.275000L193.500000,86.275000L193.500000,86.275000Q192.650000,88.175000,190.900000,91.975000L190.900000,91.975000L190.400000,93.025000L190.400000,93.025000Q189.800000,94.425000,188.750000,94.425000L188.750000,94.425000L188.750000,94.425000Q188.450000,94.425000,188.150000,94.275000L188.150000,94.275000L188.150000,94.275000Q187.500000,93.925000,187.500000,93.125000L187.500000,93.125000L187.500000,93.125000Q187.500000,92.525000,187.850000,91.875000L187.850000,91.875000L187.850000,91.875000Q189.400000,88.725000,191.250000,83.875000L191.250000,83.875000L191.800000,82.575000L191.800000,82.575000Q189.450000,80.775000,189.450000,78.625000L189.450000,78.625000L189.450000,78.625000Q189.450000,77.225000,190.075000,76.100000L190.075000,76.100000L190.075000,76.100000Q190.700000,74.975000,191.650000,74.350000L191.650000,74.350000L191.650000,74.350000Q192.600000,73.725000,193.550000,73.725000L193.550000,73.725000L193.550000,73.725000Q194.650000,73.725000,195.375000,74.600000L195.375000,74.600000L195.375000,74.600000Q196.100000,75.475000,196.100000,77.225000L196.100000,77.225000L196.100000,77.225000Q196.100000,78.275000,195.700000,79.975000L195.700000,79.975000L195.700000,79.975000Q196.050000,79.875000,197.350000,79.425000L197.350000,79.425000L197.350000,79.425000Q199.550000,78.675000,200.925000,78.300000L200.925000,78.300000L200.925000,78.300000Q202.300000,77.925000,203.350000,77.925000L203.350000,77.925000L203.350000,77.925000Q204.600000,77.925000,205.275000,78.675000L205.275000,78.675000L205.275000,78.675000Q205.950000,79.425000,205.950000,80.425000L205.950000,80.425000L205.950000,80.425000Q205.950000,81.125000,205.400000,82.475000L205.400000,82.475000L205.400000,82.475000Q204.850000,83.825000,203.750000,86.025000L203.750000,86.025000L203.750000,86.025000Q201.950000,89.725000,200.925000,92.400000L200.925000,92.400000L200.925000,92.400000Q199.900000,95.075000,199.900000,97.075000L199.900000,97.075000L199.900000,97.075000Q199.900000,97.825000,200.075000,98.125000L200.075000,98.125000L200.075000,98.125000Q200.250000,98.425000,200.600000,98.425000L200.600000,98.425000L200.600000,98.425000Q202.150000,98.425000,203.525000,96.875000L203.525000,96.875000L203.525000,96.875000Q204.900000,95.325000,205.850000,93.450000L205.850000,93.450000L205.850000,93.450000Q206.800000,91.575000,208.500000,87.875000L208.500000,87.875000L208.500000,87.875000Q208.850000,87.125000,209.300000,86.600000L209.300000,86.600000L209.300000,86.600000Q209.750000,86.075000,210.600000,86.075000L210.600000,86.075000L210.650000,86.075000L210.650000,86.075000Q211.600000,86.075000,211.600000,86.975000L211.600000,86.975000L211.600000,86.975000Q211.600000,87.675000,211.150000,88.825000L211.150000,88.825000L211.150000,88.825000Q209,94.575000,206.275000,98.075000L206.275000,98.075000L206.275000,98.075000Q203.550000,101.575000,199.350000,101.575000L199.350000,101.575000L199.350000,101.575000L199.350000,101.575000ZM197.600000,100.375000L197.750000,100.425000L197.750000,100.425000Q197.950000,100.425000,198.125000,100.250000L198.125000,100.250000L198.125000,100.250000Q198.300000,100.075000,198.300000,99.825000L198.300000,99.825000L198.300000,99.825000Q198.300000,99.525000,198.050000,99.475000L198.050000,99.475000L198.050000,99.475000Q197.250000,99.175000,196.950000,98.625000L196.950000,98.625000L196.950000,98.625000Q196.850000,98.375000,196.550000,98.375000L196.550000,98.375000L196.550000,98.375000Q196.400000,98.375000,196.250000,98.525000L196.250000,98.525000L196.250000,98.525000Q196.100000,98.675000,196.100000,98.925000L196.100000,98.925000L196.100000,98.925000Q196.100000,99.225000,196.200000,99.375000L196.200000,99.375000L196.200000,99.375000Q196.700000,100.075000,197.600000,100.375000L197.600000,100.375000Z" fill="rgb(0,0,0)" fill-opacity="0" fill-rule="evenodd" stroke="none" stroke-width="1"/><path id="erww00vcpvts6" d="M179.950000,79.675000L179.950000,79.675000Q179.450000,79.875000,179.450000,80.325000L179.450000,80.325000L179.450000,80.325000Q179.450000,80.525000,179.650000,80.650000L179.650000,80.650000L179.650000,80.650000Q179.850000,80.775000,180.150000,80.675000L180.150000,80.675000L180.150000,80.675000Q180.450000,80.575000,180.650000,80.375000L180.650000,80.375000L180.650000,80.375000Q180.850000,80.175000,180.850000,79.975000L180.850000,79.975000L180.850000,79.975000Q180.850000,79.825000,180.700000,79.700000L180.700000,79.700000L180.700000,79.700000Q180.550000,79.575000,180.350000,79.575000L180.350000,79.575000L179.950000,79.675000L179.950000,79.675000L179.950000,79.675000L179.950000,79.675000L179.950000,79.675000L179.950000,79.675000ZM176.450000,82.375000L176.450000,82.375000Q176.250000,82.575000,176.250000,82.825000L176.250000,82.825000L176.250000,82.825000Q176.250000,83.025000,176.375000,83.150000L176.375000,83.150000L176.375000,83.150000Q176.500000,83.275000,176.700000,83.275000L176.700000,83.275000L176.700000,83.275000Q176.950000,83.275000,177.100000,83.125000L177.100000,83.125000L177.100000,83.125000Q178,82.225000,178.450000,81.875000L178.450000,81.875000L178.450000,81.875000Q178.900000,81.475000,178.900000,81.075000L178.900000,81.075000L178.900000,81.075000Q178.900000,80.725000,178.600000,80.725000L178.600000,80.725000L178.600000,80.725000Q178.300000,80.725000,177.950000,81.025000L177.950000,81.025000L177.950000,81.025000Q177.200000,81.625000,176.450000,82.375000L176.450000,82.375000L176.450000,82.375000L176.450000,82.375000L176.450000,82.375000L176.450000,82.375000ZM184.900000,82.975000L184.900000,82.975000Q184.900000,82.425000,184.500000,82.100000L184.500000,82.100000L184.500000,82.100000Q184.100000,81.775000,183.450000,81.775000L183.450000,81.775000L183.450000,81.775000Q182.650000,81.775000,181.725000,82.275000L181.725000,82.275000L181.725000,82.275000Q180.800000,82.775000,180,83.775000L180,83.775000L180,83.775000Q178.750000,85.475000,177.700000,87.775000L177.700000,87.775000L177.700000,87.775000Q176.650000,90.075000,176.200000,92.175000L176.200000,92.175000L176.200000,92.175000Q179.750000,90.325000,182.325000,87.850000L182.325000,87.850000L182.325000,87.850000Q184.900000,85.375000,184.900000,82.975000L184.900000,82.975000L184.900000,82.975000L184.900000,82.975000L184.900000,82.975000ZM175.100000,99.925000L175.500000,100.025000L175.500000,100.025000Q175.950000,100.025000,175.950000,99.625000L175.950000,99.625000L175.950000,99.625000Q175.950000,99.225000,175.500000,99.025000L175.500000,99.025000L175.500000,99.025000Q174.900000,98.725000,174.200000,98.025000L174.200000,98.025000L174.200000,98.025000Q173.900000,97.725000,173.550000,97.725000L173.550000,97.725000L173.550000,97.725000Q173.200000,97.725000,173.200000,98.075000L173.200000,98.075000L173.200000,98.075000Q173.200000,98.375000,173.450000,98.675000L173.450000,98.675000L173.450000,98.675000Q174,99.475000,175.100000,99.925000L175.100000,99.925000L175.100000,99.925000L175.100000,99.925000ZM177.150000,100.675000L177.350000,100.675000L177.350000,100.675000Q177.650000,100.675000,177.825000,100.525000L177.825000,100.525000L177.825000,100.525000Q178,100.375000,178,100.175000L178,100.175000L178,100.175000Q178,100.025000,177.850000,99.875000L177.850000,99.875000L177.850000,99.875000Q177.700000,99.725000,177.400000,99.675000L177.400000,99.675000L177.250000,99.675000L177.250000,99.675000Q176.950000,99.675000,176.775000,99.825000L176.775000,99.825000L176.775000,99.825000Q176.600000,99.975000,176.600000,100.225000L176.600000,100.225000L176.600000,100.225000Q176.600000,100.625000,177.150000,100.675000L177.150000,100.675000L177.150000,100.675000ZM191,87.475000L191,87.475000Q192.100000,87.475000,192.100000,88.525000L192.100000,88.525000L192.100000,88.525000Q192.100000,89.275000,191.500000,90.725000L191.500000,90.725000L191.500000,90.725000Q189.750000,94.675000,188.225000,96.925000L188.225000,96.925000L188.225000,96.925000Q186.700000,99.175000,184.450000,100.375000L184.450000,100.375000L184.450000,100.375000Q182.200000,101.575000,178.750000,101.575000L178.750000,101.575000L178.750000,101.575000Q176.500000,101.575000,174.575000,100.700000L174.575000,100.700000L174.575000,100.700000Q172.650000,99.825000,171.525000,98.175000L171.525000,98.175000L171.525000,98.175000Q170.400000,96.525000,170.400000,94.275000L170.400000,94.275000L170.400000,94.275000Q170.400000,90.775000,172.175000,86.975000L172.175000,86.975000L172.175000,86.975000Q173.950000,83.175000,176.825000,80.625000L176.825000,80.625000L176.825000,80.625000Q179.700000,78.075000,182.900000,78.075000L182.900000,78.075000L182.900000,78.075000Q185.600000,78.075000,187.025000,79.275000L187.025000,79.275000L187.025000,79.275000Q188.450000,80.475000,188.450000,82.425000L188.450000,82.425000L188.450000,82.425000Q188.450000,86.175000,184.850000,89.775000L184.850000,89.775000L184.850000,89.775000Q181.250000,93.375000,176.150000,95.575000L176.150000,95.575000L176.150000,95.575000Q176.550000,96.875000,177.600000,97.600000L177.600000,97.600000L177.600000,97.600000Q178.650000,98.325000,179.900000,98.325000L179.900000,98.325000L179.900000,98.325000Q185.150000,98.325000,188.950000,89.525000L188.950000,89.525000L188.950000,89.525000Q189.400000,88.475000,189.825000,87.975000L189.825000,87.975000L189.825000,87.975000Q190.250000,87.475000,191,87.475000L191,87.475000L191,87.475000L191,87.475000L191,87.475000L191,87.475000L191,87.475000Z" fill="rgb(0,0,0)" fill-opacity="0" fill-rule="evenodd" stroke="none" stroke-width="1"/><path id="erww00vcpvts7" d="M147.850000,79.275000L147.850000,79.275000Q148.200000,78.925000,148.200000,78.625000L148.200000,78.625000L148.200000,78.625000Q148.200000,78.475000,148.100000,78.350000L148.100000,78.350000L148.100000,78.350000Q148,78.225000,147.800000,78.225000L147.800000,78.225000L147.800000,78.225000Q147.550000,78.225000,147.300000,78.425000L147.300000,78.425000L147.300000,78.425000Q146.950000,78.625000,146.950000,78.925000L146.950000,78.925000L146.950000,78.925000Q146.950000,79.225000,147.275000,79.375000L147.275000,79.375000L147.275000,79.375000Q147.600000,79.525000,147.850000,79.275000L147.850000,79.275000L147.850000,79.275000L147.850000,79.275000L147.850000,79.275000L147.850000,79.275000L147.850000,79.275000L147.850000,79.275000ZM145.950000,82.375000L145.950000,82.375000Q146.500000,81.175000,146.900000,80.625000L146.900000,80.625000L146.900000,80.625000Q147.050000,80.475000,147.050000,80.225000L147.050000,80.225000L147.050000,80.225000Q147.050000,80.025000,146.925000,79.875000L146.925000,79.875000L146.925000,79.875000Q146.800000,79.725000,146.600000,79.725000L146.600000,79.725000L146.600000,79.725000Q146.250000,79.725000,146,80.125000L146,80.125000L145.100000,81.925000L145.100000,81.925000Q144.950000,82.225000,144.950000,82.525000L144.950000,82.525000L144.950000,82.525000Q144.950000,82.975000,145.300000,82.975000L145.300000,82.975000L145.300000,82.975000Q145.700000,82.975000,145.950000,82.375000L145.950000,82.375000L145.950000,82.375000L145.950000,82.375000L145.950000,82.375000L145.950000,82.375000L145.950000,82.375000ZM158.400000,80.675000L158.400000,80.675000Q158.650000,80.625000,158.825000,80.450000L158.825000,80.450000L158.825000,80.450000Q159,80.275000,159,80.075000L159,80.075000L159,80.075000Q159,79.725000,158.550000,79.725000L158.550000,79.725000L158.550000,79.725000Q158.150000,79.725000,157.925000,79.875000L157.925000,79.875000L157.925000,79.875000Q157.700000,80.025000,157.700000,80.175000L157.700000,80.175000L157.700000,80.175000Q157.700000,80.375000,157.900000,80.550000L157.900000,80.550000L157.900000,80.550000Q158.100000,80.725000,158.400000,80.675000L158.400000,80.675000L158.400000,80.675000L158.400000,80.675000L158.400000,80.675000L158.400000,80.675000ZM165,82.575000L165,82.575000Q165.650000,81.825000,166.450000,81.350000L166.450000,81.350000L166.450000,81.350000Q167.250000,80.875000,167.900000,80.775000L167.900000,80.775000L167.900000,80.775000Q168.150000,80.725000,168.325000,80.525000L168.325000,80.525000L168.325000,80.525000Q168.500000,80.325000,168.500000,80.125000L168.500000,80.125000L168.500000,80.125000Q168.500000,79.775000,167.900000,79.775000L167.900000,79.775000L167.900000,79.775000Q166.500000,79.775000,164.300000,81.975000L164.300000,81.975000L164.300000,81.975000Q164.050000,82.225000,164.050000,82.475000L164.050000,82.475000L164.050000,82.475000Q164.050000,82.875000,164.500000,82.875000L164.500000,82.875000L164.500000,82.875000Q164.800000,82.875000,165,82.575000L165,82.575000L165,82.575000L165,82.575000L165,82.575000ZM155.500000,82.575000L155.500000,82.575000Q156.150000,81.825000,156.850000,81.375000L156.850000,81.375000L156.850000,81.375000Q157.400000,81.025000,157.400000,80.625000L157.400000,80.625000L157.400000,80.625000Q157.400000,80.325000,157.100000,80.325000L157.100000,80.325000L157.100000,80.325000Q156.850000,80.325000,156.450000,80.575000L156.450000,80.575000L156.450000,80.575000Q155.750000,81.025000,154.800000,81.975000L154.800000,81.975000L154.800000,81.975000Q154.550000,82.225000,154.550000,82.475000L154.550000,82.475000L154.550000,82.475000Q154.550000,82.875000,155,82.875000L155,82.875000L155,82.875000Q155.300000,82.875000,155.500000,82.575000L155.500000,82.575000L155.500000,82.575000L155.500000,82.575000ZM150.150000,98.825000L150.150000,98.825000Q150.150000,99.325000,150.300000,99.625000L150.300000,99.625000L150.300000,99.625000Q150.450000,99.925000,150.650000,99.925000L150.650000,99.925000L150.650000,99.925000Q150.850000,99.925000,151,99.650000L151,99.650000L151,99.650000Q151.150000,99.375000,151.150000,98.825000L151.150000,98.825000L151.150000,98.825000Q151.150000,97.475000,152.500000,94.975000L152.500000,94.975000L152.500000,94.975000Q152.750000,94.375000,152.750000,94.175000L152.750000,94.175000L152.750000,94.175000Q152.750000,93.975000,152.650000,93.875000L152.650000,93.875000L152.650000,93.875000Q152.550000,93.775000,152.450000,93.775000L152.450000,93.775000L152.450000,93.775000Q152,93.775000,151.600000,94.525000L151.600000,94.525000L151.600000,94.525000Q150.150000,97.275000,150.150000,98.825000L150.150000,98.825000L150.150000,98.825000ZM162.350000,102.775000L162.350000,102.775000Q160.700000,102.775000,159.800000,101.675000L159.800000,101.675000L159.800000,101.675000Q158.900000,100.575000,158.900000,98.575000L158.900000,98.575000L158.900000,98.575000Q158.900000,96.725000,160.025000,94.375000L160.025000,94.375000L160.025000,94.375000Q161.150000,92.025000,163.050000,88.875000L163.050000,88.875000L163.050000,88.875000Q164.450000,86.425000,164.600000,86.125000L164.600000,86.125000L164.600000,86.125000Q164.850000,85.525000,164.850000,85.375000L164.850000,85.375000L164.850000,85.375000Q164.850000,85.025000,164.550000,85.025000L164.550000,85.025000L164.550000,85.025000Q164.250000,85.025000,163.725000,85.425000L163.725000,85.425000L163.725000,85.425000Q163.200000,85.825000,162.700000,86.475000L162.700000,86.475000L162.700000,86.475000Q158.750000,91.325000,154.600000,98.525000L154.600000,98.525000L154.600000,98.525000Q153.500000,100.325000,153.500000,100.325000L153.500000,100.325000L153.500000,100.325000Q152.750000,101.375000,151.550000,101.375000L151.550000,101.375000L151.550000,101.375000Q150.600000,101.375000,149.900000,100.725000L149.900000,100.725000L149.900000,100.725000Q149.200000,100.075000,149.200000,99.025000L149.200000,99.025000L149.200000,99.025000Q149.200000,97.325000,150.150000,95.300000L150.150000,95.300000L150.150000,95.300000Q151.100000,93.275000,152.950000,90.225000L152.950000,90.225000L152.950000,90.225000Q154.750000,87.175000,155.200000,86.125000L155.200000,86.125000L155.200000,86.125000Q155.450000,85.525000,155.450000,85.325000L155.450000,85.325000L155.450000,85.325000Q155.450000,84.825000,154.725000,85.200000L154.725000,85.200000L154.725000,85.200000Q154,85.575000,153.300000,86.475000L153.300000,86.475000L153.300000,86.475000Q149.250000,91.375000,145.050000,98.575000L145.050000,98.575000L145.050000,98.575000Q144.200000,100.025000,144,100.275000L144,100.275000L144,100.275000Q143.450000,100.975000,142.775000,101.250000L142.775000,101.250000L142.775000,101.250000Q142.100000,101.525000,141.200000,101.525000L141.200000,101.525000L141.200000,101.525000Q139.850000,101.525000,139.275000,100.875000L139.275000,100.875000L139.275000,100.875000Q138.700000,100.225000,138.700000,99.025000L138.700000,99.025000L138.700000,99.025000Q138.700000,96.675000,140.975000,89.750000L140.975000,89.750000L140.975000,89.750000Q143.250000,82.825000,145.100000,79.125000L145.100000,79.125000L145.100000,79.125000Q145.700000,77.875000,146.450000,77.325000L146.450000,77.325000L146.450000,77.325000Q147.200000,76.775000,148.500000,76.775000L148.500000,76.775000L148.500000,76.775000Q149.500000,76.775000,150.225000,77.225000L150.225000,77.225000L150.225000,77.225000Q150.950000,77.675000,150.950000,78.475000L150.950000,78.475000L150.950000,78.475000Q150.950000,78.775000,150.900000,78.975000L150.900000,78.975000L150.900000,78.975000Q149.200000,82.675000,148.200000,85.375000L148.200000,85.375000L148.200000,85.375000Q147.200000,88.075000,146.350000,91.075000L146.350000,91.075000L146.350000,91.075000Q150.600000,84.525000,154.550000,80.725000L154.550000,80.725000L154.550000,80.725000Q155.550000,79.725000,156.700000,79.125000L156.700000,79.125000L156.700000,79.125000Q157.850000,78.525000,158.650000,78.525000L158.650000,78.525000L158.650000,78.525000Q159.450000,78.525000,159.925000,79.075000L159.925000,79.075000L159.925000,79.075000Q160.400000,79.625000,160.400000,80.525000L160.400000,80.525000L160.400000,80.525000Q160.400000,81.425000,159.500000,83.425000L159.500000,83.425000L159.500000,83.425000Q158.600000,85.425000,156.750000,89.275000L156.750000,89.275000L155.850000,91.075000L155.850000,91.075000Q158.900000,86.875000,160.750000,84.500000L160.750000,84.500000L160.750000,84.500000Q162.600000,82.125000,164.050000,80.725000L164.050000,80.725000L164.050000,80.725000Q165.050000,79.725000,166.200000,79.125000L166.200000,79.125000L166.200000,79.125000Q167.350000,78.525000,168.150000,78.525000L168.150000,78.525000L168.150000,78.525000Q168.950000,78.525000,169.425000,79.075000L169.425000,79.075000L169.425000,79.075000Q169.900000,79.625000,169.900000,80.525000L169.900000,80.525000L169.900000,80.525000Q169.900000,81.825000,169.125000,83.625000L169.125000,83.625000L169.125000,83.625000Q168.350000,85.425000,166.800000,88.225000L166.800000,88.225000L166.800000,88.225000Q165.100000,91.325000,164.225000,93.400000L164.225000,93.400000L164.225000,93.400000Q163.350000,95.475000,163.350000,97.075000L163.350000,97.075000L163.350000,97.075000Q163.350000,97.825000,163.525000,98.125000L163.525000,98.125000L163.525000,98.125000Q163.700000,98.425000,164.050000,98.425000L164.050000,98.425000L164.050000,98.425000Q165.450000,98.425000,166.675000,97.150000L166.675000,97.150000L166.675000,97.150000Q167.900000,95.875000,168.875000,94.100000L168.875000,94.100000L168.875000,94.100000Q169.850000,92.325000,171.200000,89.425000L171.200000,89.425000L171.950000,87.875000L171.950000,87.875000Q172.350000,86.975000,172.800000,86.425000L172.800000,86.425000L172.800000,86.425000Q173.250000,85.875000,174.050000,86.075000L174.050000,86.075000L174.100000,86.075000L174.100000,86.075000Q174.600000,86.225000,174.825000,86.450000L174.825000,86.450000L174.825000,86.450000Q175.050000,86.675000,175.050000,87.125000L175.050000,87.125000L175.050000,87.125000Q175.050000,87.625000,174.600000,88.775000L174.600000,88.775000L174.600000,88.775000Q172.250000,94.575000,169,98.675000L169,98.675000L169,98.675000Q165.750000,102.775000,162.350000,102.775000L162.350000,102.775000L162.350000,102.775000L162.350000,102.775000L162.350000,102.775000L162.350000,102.775000L162.350000,102.775000L162.350000,102.775000ZM163.250000,101.525000L163.250000,101.525000Q163.650000,101.475000,163.875000,101.275000L163.875000,101.275000L163.875000,101.275000Q164.100000,101.075000,164.100000,100.875000L164.100000,100.875000L164.100000,100.875000Q164.100000,100.725000,163.875000,100.600000L163.875000,100.600000L163.875000,100.600000Q163.650000,100.475000,163.250000,100.525000L163.250000,100.525000L163.250000,100.525000Q163.050000,100.575000,162.700000,100.575000L162.700000,100.575000L162.700000,100.575000Q161.900000,100.575000,161.575000,100.100000L161.575000,100.100000L161.575000,100.100000Q161.250000,99.625000,161.350000,98.575000L161.350000,98.575000L161.350000,98.475000L161.350000,98.475000Q161.350000,98.175000,161.225000,97.975000L161.225000,97.975000L161.225000,97.975000Q161.100000,97.775000,160.950000,97.775000L160.950000,97.775000L160.950000,97.775000Q160.700000,97.775000,160.525000,98.100000L160.525000,98.100000L160.525000,98.100000Q160.350000,98.425000,160.350000,98.975000L160.350000,98.975000L160.350000,98.975000Q160.350000,101.625000,162.450000,101.625000L162.450000,101.625000L162.450000,101.625000Q162.650000,101.625000,163.250000,101.525000L163.250000,101.525000Z" fill="rgb(0,0,0)" fill-opacity="0" fill-rule="evenodd" stroke="none" stroke-width="1"/><path id="erww00vcpvts8" d="M117.650000,79.275000L117.650000,79.275000Q118,78.925000,118,78.625000L118,78.625000L118,78.625000Q118,78.475000,117.900000,78.350000L117.900000,78.350000L117.900000,78.350000Q117.800000,78.225000,117.600000,78.225000L117.600000,78.225000L117.600000,78.225000Q117.350000,78.225000,117.100000,78.425000L117.100000,78.425000L117.100000,78.425000Q116.750000,78.625000,116.750000,78.925000L116.750000,78.925000L116.750000,78.925000Q116.750000,79.225000,117.075000,79.375000L117.075000,79.375000L117.075000,79.375000Q117.400000,79.525000,117.650000,79.275000L117.650000,79.275000L117.650000,79.275000L117.650000,79.275000L117.650000,79.275000L117.650000,79.275000L117.650000,79.275000L117.650000,79.275000ZM115.750000,82.375000L115.750000,82.375000Q116.300000,81.175000,116.700000,80.625000L116.700000,80.625000L116.700000,80.625000Q116.850000,80.475000,116.850000,80.225000L116.850000,80.225000L116.850000,80.225000Q116.850000,80.025000,116.725000,79.875000L116.725000,79.875000L116.725000,79.875000Q116.600000,79.725000,116.400000,79.725000L116.400000,79.725000L116.400000,79.725000Q116.050000,79.725000,115.800000,80.125000L115.800000,80.125000L114.900000,81.925000L114.900000,81.925000Q114.750000,82.225000,114.750000,82.525000L114.750000,82.525000L114.750000,82.525000Q114.750000,82.975000,115.100000,82.975000L115.100000,82.975000L115.100000,82.975000Q115.500000,82.975000,115.750000,82.375000L115.750000,82.375000L115.750000,82.375000L115.750000,82.375000L115.750000,82.375000L115.750000,82.375000L115.750000,82.375000ZM134.800000,82.575000L134.800000,82.575000Q135.450000,81.825000,136.250000,81.350000L136.250000,81.350000L136.250000,81.350000Q137.050000,80.875000,137.700000,80.775000L137.700000,80.775000L137.700000,80.775000Q137.950000,80.725000,138.125000,80.525000L138.125000,80.525000L138.125000,80.525000Q138.300000,80.325000,138.300000,80.125000L138.300000,80.125000L138.300000,80.125000Q138.300000,79.775000,137.700000,79.775000L137.700000,79.775000L137.700000,79.775000Q136.300000,79.775000,134.100000,81.975000L134.100000,81.975000L134.100000,81.975000Q133.850000,82.225000,133.850000,82.475000L133.850000,82.475000L133.850000,82.475000Q133.850000,82.875000,134.300000,82.875000L134.300000,82.875000L134.300000,82.875000Q134.600000,82.875000,134.800000,82.575000L134.800000,82.575000L134.800000,82.575000L134.800000,82.575000L134.800000,82.575000L134.800000,82.575000ZM133.050000,101.525000L133.050000,101.525000Q133.450000,101.475000,133.675000,101.275000L133.675000,101.275000L133.675000,101.275000Q133.900000,101.075000,133.900000,100.875000L133.900000,100.875000L133.900000,100.875000Q133.900000,100.725000,133.675000,100.600000L133.675000,100.600000L133.675000,100.600000Q133.450000,100.475000,133.050000,100.525000L133.050000,100.525000L133.050000,100.525000Q132.850000,100.575000,132.500000,100.575000L132.500000,100.575000L132.500000,100.575000Q131.700000,100.575000,131.375000,100.100000L131.375000,100.100000L131.375000,100.100000Q131.050000,99.625000,131.150000,98.575000L131.150000,98.575000L131.150000,98.475000L131.150000,98.475000Q131.150000,98.175000,131.025000,97.975000L131.025000,97.975000L131.025000,97.975000Q130.900000,97.775000,130.750000,97.775000L130.750000,97.775000L130.750000,97.775000Q130.500000,97.775000,130.325000,98.100000L130.325000,98.100000L130.325000,98.100000Q130.150000,98.425000,130.150000,98.975000L130.150000,98.975000L130.150000,98.975000Q130.150000,101.625000,132.250000,101.625000L132.250000,101.625000L132.250000,101.625000Q132.450000,101.625000,133.050000,101.525000L133.050000,101.525000L133.050000,101.525000L133.050000,101.525000L133.050000,101.525000ZM119.950000,98.825000L119.950000,98.825000Q119.950000,99.325000,120.100000,99.625000L120.100000,99.625000L120.100000,99.625000Q120.250000,99.925000,120.450000,99.925000L120.450000,99.925000L120.450000,99.925000Q120.650000,99.925000,120.800000,99.650000L120.800000,99.650000L120.800000,99.650000Q120.950000,99.375000,120.950000,98.825000L120.950000,98.825000L120.950000,98.825000Q120.950000,97.475000,122.300000,94.975000L122.300000,94.975000L122.300000,94.975000Q122.550000,94.375000,122.550000,94.175000L122.550000,94.175000L122.550000,94.175000Q122.550000,93.975000,122.450000,93.875000L122.450000,93.875000L122.450000,93.875000Q122.350000,93.775000,122.250000,93.775000L122.250000,93.775000L122.250000,93.775000Q121.800000,93.775000,121.400000,94.525000L121.400000,94.525000L121.400000,94.525000Q119.950000,97.275000,119.950000,98.825000L119.950000,98.825000L119.950000,98.825000L119.950000,98.825000ZM125.300000,82.575000L125.300000,82.575000Q125.950000,81.825000,126.650000,81.375000L126.650000,81.375000L126.650000,81.375000Q127.200000,81.025000,127.200000,80.625000L127.200000,80.625000L127.200000,80.625000Q127.200000,80.325000,126.900000,80.325000L126.900000,80.325000L126.900000,80.325000Q126.650000,80.325000,126.250000,80.575000L126.250000,80.575000L126.250000,80.575000Q125.550000,81.025000,124.600000,81.975000L124.600000,81.975000L124.600000,81.975000Q124.350000,82.225000,124.350000,82.475000L124.350000,82.475000L124.350000,82.475000Q124.350000,82.875000,124.800000,82.875000L124.800000,82.875000L124.800000,82.875000Q125.100000,82.875000,125.300000,82.575000L125.300000,82.575000L125.300000,82.575000ZM132.150000,102.775000L132.150000,102.775000Q130.500000,102.775000,129.600000,101.675000L129.600000,101.675000L129.600000,101.675000Q128.700000,100.575000,128.700000,98.575000L128.700000,98.575000L128.700000,98.575000Q128.700000,96.725000,129.825000,94.375000L129.825000,94.375000L129.825000,94.375000Q130.950000,92.025000,132.850000,88.875000L132.850000,88.875000L132.850000,88.875000Q134.250000,86.425000,134.400000,86.125000L134.400000,86.125000L134.400000,86.125000Q134.650000,85.525000,134.650000,85.375000L134.650000,85.375000L134.650000,85.375000Q134.650000,85.025000,134.350000,85.025000L134.350000,85.025000L134.350000,85.025000Q134.050000,85.025000,133.525000,85.425000L133.525000,85.425000L133.525000,85.425000Q133,85.825000,132.500000,86.475000L132.500000,86.475000L132.500000,86.475000Q128.550000,91.325000,124.400000,98.525000L124.400000,98.525000L124.400000,98.525000Q123.300000,100.325000,123.300000,100.325000L123.300000,100.325000L123.300000,100.325000Q122.550000,101.375000,121.350000,101.375000L121.350000,101.375000L121.350000,101.375000Q120.400000,101.375000,119.700000,100.725000L119.700000,100.725000L119.700000,100.725000Q119,100.075000,119,99.025000L119,99.025000L119,99.025000Q119,97.325000,119.950000,95.300000L119.950000,95.300000L119.950000,95.300000Q120.900000,93.275000,122.750000,90.225000L122.750000,90.225000L122.750000,90.225000Q124.550000,87.175000,125,86.125000L125,86.125000L125,86.125000Q125.250000,85.525000,125.250000,85.325000L125.250000,85.325000L125.250000,85.325000Q125.250000,84.825000,124.525000,85.200000L124.525000,85.200000L124.525000,85.200000Q123.800000,85.575000,123.100000,86.475000L123.100000,86.475000L123.100000,86.475000Q119.050000,91.375000,114.850000,98.575000L114.850000,98.575000L114.850000,98.575000Q114,100.025000,113.800000,100.275000L113.800000,100.275000L113.800000,100.275000Q113.250000,100.975000,112.575000,101.250000L112.575000,101.250000L112.575000,101.250000Q111.900000,101.525000,111,101.525000L111,101.525000L111,101.525000Q109.650000,101.525000,109.075000,100.875000L109.075000,100.875000L109.075000,100.875000Q108.500000,100.225000,108.500000,99.025000L108.500000,99.025000L108.500000,99.025000Q108.500000,96.675000,110.775000,89.750000L110.775000,89.750000L110.775000,89.750000Q113.050000,82.825000,114.900000,79.125000L114.900000,79.125000L114.900000,79.125000Q115.500000,77.875000,116.250000,77.325000L116.250000,77.325000L116.250000,77.325000Q117,76.775000,118.300000,76.775000L118.300000,76.775000L118.300000,76.775000Q119.300000,76.775000,120.025000,77.225000L120.025000,77.225000L120.025000,77.225000Q120.750000,77.675000,120.750000,78.475000L120.750000,78.475000L120.750000,78.475000Q120.750000,78.775000,120.700000,78.975000L120.700000,78.975000L120.700000,78.975000Q119,82.675000,118,85.375000L118,85.375000L118,85.375000Q117,88.075000,116.150000,91.075000L116.150000,91.075000L116.150000,91.075000Q120.400000,84.525000,124.350000,80.725000L124.350000,80.725000L124.350000,80.725000Q125.350000,79.725000,126.500000,79.125000L126.500000,79.125000L126.500000,79.125000Q127.650000,78.525000,128.450000,78.525000L128.450000,78.525000L128.450000,78.525000Q129.250000,78.525000,129.725000,79.075000L129.725000,79.075000L129.725000,79.075000Q130.200000,79.625000,130.200000,80.525000L130.200000,80.525000L130.200000,80.525000Q130.200000,81.425000,129.300000,83.425000L129.300000,83.425000L129.300000,83.425000Q128.400000,85.425000,126.550000,89.275000L126.550000,89.275000L125.650000,91.075000L125.650000,91.075000Q128.700000,86.875000,130.550000,84.500000L130.550000,84.500000L130.550000,84.500000Q132.400000,82.125000,133.850000,80.725000L133.850000,80.725000L133.850000,80.725000Q134.850000,79.725000,136,79.125000L136,79.125000L136,79.125000Q137.150000,78.525000,137.950000,78.525000L137.950000,78.525000L137.950000,78.525000Q138.750000,78.525000,139.225000,79.075000L139.225000,79.075000L139.225000,79.075000Q139.700000,79.625000,139.700000,80.525000L139.700000,80.525000L139.700000,80.525000Q139.700000,81.825000,138.925000,83.625000L138.925000,83.625000L138.925000,83.625000Q138.150000,85.425000,136.600000,88.225000L136.600000,88.225000L136.600000,88.225000Q134.900000,91.325000,134.025000,93.400000L134.025000,93.400000L134.025000,93.400000Q133.150000,95.475000,133.150000,97.075000L133.150000,97.075000L133.150000,97.075000Q133.150000,97.825000,133.325000,98.125000L133.325000,98.125000L133.325000,98.125000Q133.500000,98.425000,133.850000,98.425000L133.850000,98.425000L133.850000,98.425000Q135.250000,98.425000,136.475000,97.150000L136.475000,97.150000L136.475000,97.150000Q137.700000,95.875000,138.675000,94.100000L138.675000,94.100000L138.675000,94.100000Q139.650000,92.325000,141,89.425000L141,89.425000L141.750000,87.875000L141.750000,87.875000Q142.150000,86.975000,142.600000,86.425000L142.600000,86.425000L142.600000,86.425000Q143.050000,85.875000,143.850000,86.075000L143.850000,86.075000L143.900000,86.075000L143.900000,86.075000Q144.400000,86.225000,144.625000,86.450000L144.625000,86.450000L144.625000,86.450000Q144.850000,86.675000,144.850000,87.125000L144.850000,87.125000L144.850000,87.125000Q144.850000,87.625000,144.400000,88.775000L144.400000,88.775000L144.400000,88.775000Q142.050000,94.575000,138.800000,98.675000L138.800000,98.675000L138.800000,98.675000Q135.550000,102.775000,132.150000,102.775000L132.150000,102.775000L132.150000,102.775000L132.150000,102.775000L132.150000,102.775000L132.150000,102.775000L132.150000,102.775000L132.150000,102.775000ZM128.200000,80.675000L128.200000,80.675000Q128.450000,80.625000,128.625000,80.450000L128.625000,80.450000L128.625000,80.450000Q128.800000,80.275000,128.800000,80.075000L128.800000,80.075000L128.800000,80.075000Q128.800000,79.725000,128.350000,79.725000L128.350000,79.725000L128.350000,79.725000Q127.950000,79.725000,127.725000,79.875000L127.725000,79.875000L127.725000,79.875000Q127.500000,80.025000,127.500000,80.175000L127.500000,80.175000L127.500000,80.175000Q127.500000,80.375000,127.700000,80.550000L127.700000,80.550000L127.700000,80.550000Q127.900000,80.725000,128.200000,80.675000L128.200000,80.675000Z" fill="rgb(0,0,0)" fill-opacity="0" fill-rule="evenodd" stroke="none" stroke-width="1"/><path id="erww00vcpvts9" d="M97.450000,79.675000L97.450000,79.675000Q97.100000,79.875000,97.100000,80.125000L97.100000,80.125000L97.100000,80.125000Q97.100000,80.425000,97.400000,80.575000L97.400000,80.575000L97.400000,80.575000Q97.700000,80.725000,98,80.525000L98,80.525000L98.850000,80.175000L98.850000,80.175000Q99.350000,80.025000,99.350000,79.625000L99.350000,79.625000L99.350000,79.625000Q99.350000,79.375000,99.150000,79.250000L99.150000,79.250000L99.150000,79.250000Q98.950000,79.125000,98.550000,79.225000L98.550000,79.225000L98.550000,79.225000Q97.850000,79.425000,97.450000,79.675000L97.450000,79.675000L97.450000,79.675000L97.450000,79.675000L97.450000,79.675000L97.450000,79.675000ZM94.300000,81.925000L94.300000,81.925000Q93.950000,82.275000,93.950000,82.575000L93.950000,82.575000L93.950000,82.575000Q93.950000,82.775000,94.075000,82.875000L94.075000,82.875000L94.075000,82.875000Q94.200000,82.975000,94.350000,82.975000L94.350000,82.975000L94.350000,82.975000Q94.700000,82.975000,95,82.675000L95,82.675000L95,82.675000Q95.500000,82.125000,96.150000,81.625000L96.150000,81.625000L96.150000,81.625000Q96.550000,81.375000,96.550000,80.975000L96.550000,80.975000L96.550000,80.975000Q96.550000,80.575000,96.150000,80.575000L96.150000,80.575000L96.150000,80.575000Q95.800000,80.575000,95.400000,80.925000L95.400000,80.925000L95.400000,80.925000Q94.750000,81.425000,94.300000,81.925000L94.300000,81.925000L94.300000,81.925000L94.300000,81.925000L94.300000,81.925000ZM96.250000,94.775000L96.250000,94.775000Q97.850000,93.125000,99.250000,91.375000L99.250000,91.375000L99.250000,91.375000Q100.650000,89.625000,102.800000,86.775000L102.800000,86.775000L102.800000,86.775000Q103.400000,85.925000,103.400000,84.825000L103.400000,84.825000L103.400000,84.825000Q103.400000,83.925000,103,83.075000L103,83.075000L103,83.075000Q102.600000,82.225000,101.900000,81.775000L101.900000,81.775000L101.900000,81.775000Q101.400000,81.425000,100.850000,81.425000L100.850000,81.425000L100.850000,81.425000Q98.700000,81.425000,96.100000,86.175000L96.100000,86.175000L96.100000,86.175000Q94.700000,88.775000,93.500000,92.475000L93.500000,92.475000L93.500000,92.475000Q93.150000,93.525000,93.150000,94.425000L93.150000,94.425000L93.150000,94.425000Q93.150000,95.175000,93.425000,95.600000L93.425000,95.600000L93.425000,95.600000Q93.700000,96.025000,94.200000,96.025000L94.200000,96.025000L94.200000,96.025000Q95,96.025000,96.250000,94.775000L96.250000,94.775000L96.250000,94.775000L96.250000,94.775000ZM91.300000,100.375000L91.300000,100.375000Q91.650000,100.375000,91.850000,100.225000L91.850000,100.225000L91.850000,100.225000Q92.050000,100.075000,92.050000,99.925000L92.050000,99.925000L92.050000,99.925000Q92.050000,99.725000,91.825000,99.550000L91.825000,99.550000L91.825000,99.550000Q91.600000,99.375000,91.300000,99.375000L91.300000,99.375000L91.300000,99.375000Q90.500000,99.375000,89.875000,99L89.875000,99L89.875000,99Q89.250000,98.625000,88.900000,97.975000L88.900000,97.975000L88.900000,97.975000Q88.800000,97.725000,88.500000,97.725000L88.500000,97.725000L88.500000,97.725000Q88.300000,97.725000,88.175000,97.875000L88.175000,97.875000L88.175000,97.875000Q88.050000,98.025000,88.050000,98.225000L88.050000,98.225000L88.050000,98.225000Q88.050000,98.475000,88.200000,98.725000L88.200000,98.725000L88.200000,98.725000Q88.700000,99.475000,89.500000,99.925000L89.500000,99.925000L89.500000,99.925000Q90.300000,100.375000,91.300000,100.375000L91.300000,100.375000L91.300000,100.375000ZM113.550000,85.625000L113.550000,85.625000Q114.800000,85.625000,114.800000,86.725000L114.800000,86.725000L114.800000,86.725000Q114.800000,87.525000,114.150000,88.825000L114.150000,88.825000L114.150000,88.825000Q114.050000,89.025000,113.925000,89.300000L113.925000,89.300000L113.925000,89.300000Q113.800000,89.575000,113.650000,89.925000L113.650000,89.925000L113.650000,89.925000Q112,93.475000,110.725000,95.775000L110.725000,95.775000L110.725000,95.775000Q109.450000,98.075000,107.825000,99.775000L107.825000,99.775000L107.825000,99.775000Q106.200000,101.475000,104.350000,101.475000L104.350000,101.475000L104.350000,101.475000Q100.250000,101.475000,100.250000,96.825000L100.250000,96.825000L100.250000,96.825000Q100.250000,95.825000,100.500000,94.325000L100.500000,94.325000L100.500000,94.325000Q97,98.675000,94.250000,100.425000L94.250000,100.425000L94.250000,100.425000Q92.700000,101.425000,90.900000,101.425000L90.900000,101.425000L90.900000,101.425000Q89.200000,101.425000,88.075000,100.350000L88.075000,100.350000L88.075000,100.350000Q86.950000,99.275000,86.950000,97.325000L86.950000,97.325000L86.950000,97.325000Q86.950000,93.125000,90.900000,84.925000L90.900000,84.925000L90.900000,84.925000Q92.300000,82.025000,94.800000,80.175000L94.800000,80.175000L94.800000,80.175000Q97.300000,78.325000,99.900000,78.325000L99.900000,78.325000L99.900000,78.325000Q101.700000,78.325000,103.175000,79.250000L103.175000,79.250000L103.175000,79.250000Q104.650000,80.175000,105.450000,81.725000L105.450000,81.725000L105.450000,81.725000Q106.250000,80.475000,107.100000,80.475000L107.100000,80.475000L107.100000,80.475000Q107.500000,80.475000,107.850000,80.825000L107.850000,80.825000L107.850000,80.825000Q108.350000,81.275000,108.350000,81.925000L108.350000,81.925000L108.350000,81.925000Q108.350000,82.525000,108,83.075000L108,83.075000L108,83.075000Q106.800000,85.075000,106.050000,86.625000L106.050000,86.625000L106.050000,86.625000Q105.850000,87.275000,105.600000,87.675000L105.600000,87.675000L105.600000,87.675000Q104.950000,89.425000,104.300000,91.425000L104.300000,91.425000L104.300000,91.425000Q104.150000,91.725000,104.075000,92.025000L104.075000,92.025000L104.075000,92.025000Q104,92.325000,103.900000,92.575000L103.900000,92.575000L103.900000,92.575000Q103.300000,94.525000,103.300000,96.025000L103.300000,96.025000L103.300000,96.025000Q103.300000,97.125000,103.600000,97.750000L103.600000,97.750000L103.600000,97.750000Q103.900000,98.375000,104.450000,98.375000L104.450000,98.375000L104.450000,98.375000Q105.600000,98.375000,107.250000,95.725000L107.250000,95.725000L107.250000,95.725000Q108.900000,93.075000,111.050000,88.825000L111.050000,88.825000L111.550000,87.825000L111.550000,87.825000Q112.050000,86.625000,112.425000,86.125000L112.425000,86.125000L112.425000,86.125000Q112.800000,85.625000,113.550000,85.625000L113.550000,85.625000L113.550000,85.625000L113.550000,85.625000L113.550000,85.625000L113.550000,85.625000ZM95,98.825000L95,98.825000Q95.300000,98.425000,95.300000,98.225000L95.300000,98.225000L95.300000,98.225000Q95.300000,97.925000,94.950000,97.925000L94.950000,97.925000L94.950000,97.925000Q94.650000,97.925000,94.400000,98.175000L94.400000,98.175000L94.400000,98.175000Q94,98.525000,93.050000,99.075000L93.050000,99.075000L93.050000,99.075000Q92.700000,99.225000,92.700000,99.575000L92.700000,99.575000L92.700000,99.575000Q92.700000,99.975000,93.100000,99.975000L93.100000,99.975000L93.100000,99.975000Q93.450000,99.975000,94.025000,99.675000L94.025000,99.675000L94.025000,99.675000Q94.600000,99.375000,95,98.825000L95,98.825000Z" fill="rgb(0,0,0)" fill-opacity="0" fill-rule="evenodd" stroke="none" stroke-width="1"/><path id="erww00vcpvts10" d="M87.200000,70.425000L87.200000,70.425000Q86.950000,67.825000,85.475000,66.125000L85.475000,66.125000L85.475000,66.125000Q84,64.425000,81.700000,64.075000L81.700000,64.075000L81.500000,64.075000L81.500000,64.075000Q81.250000,64.075000,81.100000,64.200000L81.100000,64.200000L81.100000,64.200000Q80.950000,64.325000,80.950000,64.525000L80.950000,64.525000L80.950000,64.525000Q80.950000,64.675000,81.100000,64.825000L81.100000,64.825000L81.100000,64.825000Q81.250000,64.975000,81.500000,65.025000L81.500000,65.025000L81.500000,65.025000Q83.500000,65.325000,84.725000,66.800000L84.725000,66.800000L84.725000,66.800000Q85.950000,68.275000,86.200000,70.525000L86.200000,70.525000L86.200000,70.525000Q86.350000,71.375000,86.800000,71.375000L86.800000,71.375000L86.800000,71.375000Q87,71.375000,87.125000,71.125000L87.125000,71.125000L87.125000,71.125000Q87.250000,70.875000,87.200000,70.425000L87.200000,70.425000L87.200000,70.425000L87.200000,70.425000L87.200000,70.425000ZM63.400000,102.275000L63.400000,102.275000Q64.500000,99.425000,67.500000,96.500000L67.500000,96.500000L67.500000,96.500000Q68.359000,95.663000,69.308000,94.889000C70.885000,93.603000,72.649000,92.448000,74.600000,91.425000L74.600000,91.425000L74.600000,91.425000Q75.750000,90.825000,75.750000,90.375000L75.750000,90.375000L75.750000,90.375000Q75.750000,90.175000,75.400000,90.175000L75.400000,90.175000L75.400000,90.175000Q74.850000,90.175000,74,90.625000L74,90.625000L74,90.625000Q69.850000,92.725000,66.725000,95.750000L66.725000,95.750000L66.725000,95.750000Q63.600000,98.775000,62.450000,101.925000L62.450000,101.925000L62.450000,101.925000Q62.350000,102.225000,62.350000,102.325000L62.350000,102.325000L62.350000,102.325000Q62.350000,102.525000,62.475000,102.675000L62.475000,102.675000L62.475000,102.675000Q62.600000,102.825000,62.800000,102.825000L62.800000,102.825000L62.800000,102.825000Q63.150000,102.825000,63.400000,102.275000L63.400000,102.275000L63.400000,102.275000L63.400000,102.275000ZM71.300000,104.975000L71.300000,104.975000Q73.600000,102.775000,76.650000,98.075000L76.650000,98.075000L76.650000,98.075000Q79.700000,93.375000,81,90.275000L81,90.275000L81,90.275000Q78.050000,91.625000,75.100000,94.200000L75.100000,94.200000L75.100000,94.200000Q72.150000,96.775000,70.250000,99.600000L70.250000,99.600000L70.250000,99.600000Q68.350000,102.425000,68.350000,104.525000L68.350000,104.525000L68.350000,104.525000Q68.350000,105.175000,68.650000,105.550000L68.650000,105.550000L68.650000,105.550000Q68.950000,105.925000,69.450000,105.925000L69.450000,105.925000L69.450000,105.925000Q70.300000,105.925000,71.300000,104.975000L71.300000,104.975000L71.300000,104.975000ZM66.250000,109.725000L66.250000,109.725000Q63.800000,109.725000,62.150000,108.475000L62.150000,108.475000L62.150000,108.475000Q60.500000,107.225000,60.500000,104.925000L60.500000,104.925000L60.500000,104.925000Q60.500000,101.625000,63.225000,97.875000L63.225000,97.875000L63.225000,97.875000Q65.950000,94.125000,70.925000,91.075000L70.925000,91.075000L70.925000,91.075000Q75.900000,88.025000,82.300000,86.675000L82.300000,86.675000L82.300000,86.675000Q84.400000,79.675000,84.400000,75.275000L84.400000,75.275000L84.400000,75.275000Q84.400000,67.725000,78.100000,67.725000L78.100000,67.725000L78.100000,67.725000Q75.700000,67.725000,73.025000,69.100000L73.025000,69.100000L73.025000,69.100000Q70.350000,70.475000,67.900000,73.025000L67.900000,73.025000L67.900000,73.025000Q67.250000,73.725000,66.500000,73.725000L66.500000,73.725000L66.500000,73.725000Q66,73.725000,65.625000,73.350000L65.625000,73.350000L65.625000,73.350000Q65.250000,72.975000,65.250000,72.475000L65.250000,72.475000L65.250000,72.475000Q65.250000,71.775000,65.700000,71.275000L65.700000,71.275000L65.700000,71.275000Q68.700000,67.625000,72.950000,65.300000L72.950000,65.300000L72.950000,65.300000Q77.200000,62.975000,80.900000,62.975000L80.900000,62.975000L80.900000,62.975000Q84.400000,62.975000,86.400000,65.225000L86.400000,65.225000L86.400000,65.225000Q88.400000,67.475000,88.400000,71.325000L88.400000,71.325000L88.400000,71.325000Q88.400000,74.025000,87.575000,77.925000L87.575000,77.925000L87.575000,77.925000Q86.750000,81.825000,85.600000,85.775000L85.600000,85.775000L85.600000,85.775000Q86.500000,85.525000,87.250000,85.525000L87.250000,85.525000L87.250000,85.525000Q87.950000,85.525000,88.325000,85.950000L88.325000,85.950000L88.325000,85.950000Q88.700000,86.375000,88.700000,86.925000L88.700000,86.925000L88.700000,86.925000Q88.700000,87.475000,88.375000,87.900000L88.375000,87.900000L88.375000,87.900000Q88.050000,88.325000,87.400000,88.475000L87.400000,88.475000L87.400000,88.475000Q86.100000,88.725000,84.550000,89.075000L84.550000,89.075000L84.550000,89.075000Q82.650000,93.975000,79.875000,98.650000L79.875000,98.650000L79.875000,98.650000Q77.100000,103.325000,73.575000,106.525000L73.575000,106.525000L73.575000,106.525000Q70.050000,109.725000,66.250000,109.725000L66.250000,109.725000L66.250000,109.725000L66.250000,109.725000L66.250000,109.725000ZM64.850000,108.375000L65.050000,108.425000L65.050000,108.425000Q65.250000,108.425000,65.375000,108.275000L65.375000,108.275000L65.375000,108.275000Q65.500000,108.125000,65.500000,107.925000L65.500000,107.925000L65.500000,107.925000Q65.500000,107.475000,65.150000,107.425000L65.150000,107.425000L65.150000,107.425000Q64,107.125000,63.450000,106.500000L63.450000,106.500000L63.450000,106.500000Q62.900000,105.875000,62.900000,104.775000L62.900000,104.775000L62.900000,104.775000Q62.900000,104.325000,62.725000,104L62.725000,104L62.725000,104Q62.550000,103.675000,62.350000,103.675000L62.350000,103.675000L62.350000,103.675000Q61.900000,103.675000,61.900000,104.775000L61.900000,104.775000L61.900000,104.775000Q61.900000,106.225000,62.650000,107.075000L62.650000,107.075000L62.650000,107.075000Q63.400000,107.925000,64.850000,108.375000L64.850000,108.375000Z" fill="rgb(0,0,0)" fill-opacity="0" stroke="rgb(0,0,0)" stroke-width="1" stroke-opacity="0"/></g></svg>